<?xml version="1.0" encoding="utf-8"?>
<!-- Generator: Adobe Illustrator 22.1.0, SVG Export Plug-In . SVG Version: 6.00 Build 0)  -->
<svg version="1.1" id="Layer_1" xmlns="http://www.w3.org/2000/svg" xmlns:xlink="http://www.w3.org/1999/xlink" x="0px" y="0px"
	 viewBox="0 0 512 512" style="enable-background:new 0 0 512 512;" xml:space="preserve">
<g>
	<path d="M256,396.6c16.9,0,28.1,11.2,28.1,28.1v28.1c0,16.9-11.2,28.1-28.1,28.1s-28.1-11.2-28.1-28.1v-28.1
		C227.9,407.9,239.1,396.6,256,396.6z M256,115.4c-16.9,0-28.1-11.2-28.1-28.1V59.1c0-16.9,11.2-28.1,28.1-28.1s28.1,11.2,28.1,28.1
		v28.1C284.1,104.1,272.9,115.4,256,115.4z M452.9,227.9c16.9,0,28.1,11.2,28.1,28.1s-11.2,28.1-28.1,28.1h-28.1
		c-16.9,0-28.1-11.2-28.1-28.1s11.2-28.1,28.1-28.1H452.9z M115.4,256c0,16.9-11.2,28.1-28.1,28.1H59.1C42.2,284.1,31,272.9,31,256
		s11.2-28.1,28.1-28.1h28.1C104.1,227.9,115.4,239.1,115.4,256z M393.8,354.4l19.7,19.7c11.2,11.2,11.2,28.1,0,39.4
		c-11.2,11.2-28.1,11.2-39.4,0l-19.7-19.7c-11.2-11.2-11.2-28.1,0-39.4S385.4,343.2,393.8,354.4z M115.4,157.6l-19.7-19.7
		c-8.4-11.2-8.4-30.9,0-42.2s28.1-11.2,39.4,0l19.7,19.7c11.2,11.2,11.2,28.1,0,39.4S126.6,168.8,115.4,157.6z M393.8,157.6
		c-11.2,11.2-28.1,11.2-39.4,0s-11.2-28.1,0-39.4l19.7-19.7c11.2-11.2,28.1-11.2,39.4,0c11.2,11.2,11.2,28.1,0,39.4L393.8,157.6z
		 M115.4,354.4c11.2-11.2,28.1-11.2,39.4,0s11.2,28.1,0,39.4l-19.7,19.7c-11.2,11.2-28.1,11.2-39.4,0c-11.2-11.2-11.2-28.1,0-39.4
		C95.7,374.1,115.4,354.4,115.4,354.4z"/>
	<path d="M256,143.5c-61.9,0-112.5,50.6-112.5,112.5S194.1,368.5,256,368.5S368.5,317.9,368.5,256S317.9,143.5,256,143.5z
		 M256,326.3c-39.4,0-70.3-30.9-70.3-70.3s30.9-70.3,70.3-70.3s70.3,30.9,70.3,70.3S295.4,326.3,256,326.3z"/>
</g>
</svg>
