<?xml version="1.0" encoding="UTF-8" standalone="no"?>
<!-- Created with Inkscape (http://www.inkscape.org/) -->

<svg
   width="300"
   height="150"
   viewBox="0 0 79.374998 39.687516"
   version="1.1"
   id="svg5"
   inkscape:version="1.2 (dc2aedaf03, 2022-05-15)"
   sodipodi:docname="Uptick.svg"
   xmlns:inkscape="http://www.inkscape.org/namespaces/inkscape"
   xmlns:sodipodi="http://sodipodi.sourceforge.net/DTD/sodipodi-0.dtd"
   xmlns="http://www.w3.org/2000/svg"
   xmlns:svg="http://www.w3.org/2000/svg">
  <sodipodi:namedview
     id="namedview7"
     pagecolor="#ffffff"
     bordercolor="#111111"
     borderopacity="1"
     inkscape:showpageshadow="0"
     inkscape:pageopacity="0"
     inkscape:pagecheckerboard="1"
     inkscape:deskcolor="#d1d1d1"
     inkscape:document-units="mm"
     showgrid="false"
     inkscape:zoom="3.5705387"
     inkscape:cx="93.963412"
     inkscape:cy="82.340516"
     inkscape:window-width="2560"
     inkscape:window-height="1369"
     inkscape:window-x="1912"
     inkscape:window-y="317"
     inkscape:window-maximized="1"
     inkscape:current-layer="layer1" />
  <defs
     id="defs2" />
  <g
     inkscape:label="Layer 1"
     inkscape:groupmode="layer"
     id="layer1">
    <rect
       style="fill:none;stroke-width:0.264583"
       id="rect65"
       width="29.19611"
       height="27.714073"
       x="27.269461"
       y="15.857784" />
    <rect
       style="fill:#e2e8f0;stroke-width:0.370612;fill-opacity:1"
       id="rect117"
       width="56.029633"
       height="56.029633"
       x="-27.891682"
       y="28.03726"
       transform="matrix(-0.70555169,0.70865846,0.70865846,0.70555169,0,0)" />
    <path
       style="fill:#999999;stroke-width:0.28007"
       d="M 75.35729,224.95977 C 34.239226,184.01161 0.55495685,150.38192 0.50335732,150.22713 0.4517578,150.07233 33.947653,116.26661 74.938678,75.103311 L 149.46782,0.26094998 186.62179,37.224789 c 20.43468,20.330112 54.16821,53.903508 74.96339,74.607541 l 37.80942,37.64371 -53.49333,53.70771 c -29.42133,29.53923 -63.0087,63.27459 -74.6386,74.96745 l -21.14527,21.25975 z"
       id="path986"
       transform="scale(0.26458333)" />
    <path
       style="fill:#b3b3b3;stroke-width:0.28007"
       d="M 106.42652,255.6801 C 82.39653,231.7448 48.778407,198.23299 31.719575,181.20941 L 0.70351956,150.25744 3.2707885,147.59678 C 9.6100754,141.02687 62.23804,88.067425 115.35349,34.808106 L 149.48674,0.58240231 169.74338,20.666278 c 11.14115,11.046133 44.81265,44.533968 74.82557,74.417413 l 54.56894,54.333539 -37.17872,37.38932 c -20.44829,20.56412 -53.9779,54.26498 -74.51024,74.89079 L 150.1174,299.1988 Z"
       id="path988"
       transform="scale(0.26458333)" />
    <path
       style="fill:#cccccc;stroke-width:0;stroke:none;stroke-dasharray:none"
       d="M 75.465097,224.61595 0.85105178,150.2094 22.302158,128.52801 C 34.100266,116.60325 67.559164,82.989211 96.655264,53.830152 L 149.55726,0.81367909 157.81932,9.0163837 C 169.62616,20.738405 265.38986,115.97704 283.64205,134.14924 l 15.33519,15.26799 -14.6269,14.70366 c -8.0448,8.08702 -26.67014,26.80268 -41.38965,41.59037 -14.71951,14.78768 -41.63947,41.83222 -59.82214,60.09897 l -33.05941,33.21227 z"
       id="path1059"
       transform="scale(0.26458333)" />
    <path
       style="fill:#e6e6e6;stroke-width:0"
       d="M 128.8321,277.63797 C 117.12518,265.98146 83.584354,232.52989 54.296924,203.30114 L 1.0470542,150.15796 26.414045,124.58132 C 40.365889,110.51416 73.77135,76.987089 100.6484,50.076715 l 48.86736,-48.9279501 1.001,0.8699193 c 1.09046,0.9476721 85.86092,85.2225548 124.33905,123.6121458 l 23.91328,23.85827 -61.02493,61.29934 c -33.56372,33.71465 -67.01035,67.31671 -74.32585,74.67126 l -13.30091,13.3719 z"
       id="path1000"
       transform="scale(0.26458333)" />
    <path
       style="fill:#e6e6e6;stroke-width:0"
       d="M 93.097843,241.80201 C 61.76498,210.52718 28.252039,177.11615 18.624641,167.55527 L 1.1202791,150.17184 21.564866,129.62951 C 32.809388,118.33123 66.197395,84.865343 95.760438,55.260871 145.64156,5.3098525 149.55048,1.4619223 150.05397,1.8145802 151.54957,2.8621377 298.46704,149.26842 298.34977,149.5944 c -0.0696,0.19352 -48.49728,48.89502 -119.2705,119.94492 l -29.01259,29.126 z"
       id="path1071"
       transform="scale(0.26458333)" />
  </g>
</svg>
