<?xml version="1.0" encoding="UTF-8" standalone="no"?>
<svg
   height="800"
   width="1130"
   viewBox="-35.20005 -41.33325 287.27152 247.9995"
   version="1.1"
   id="svg4"
   sodipodi:docname="Youtube.svg"
   inkscape:version="1.1.2 (b8e25be833, 2022-02-05)"
   xmlns:inkscape="http://www.inkscape.org/namespaces/inkscape"
   xmlns:sodipodi="http://sodipodi.sourceforge.net/DTD/sodipodi-0.dtd"
   xmlns="http://www.w3.org/2000/svg"
   xmlns:svg="http://www.w3.org/2000/svg">
  <defs
     id="defs8" />
  <sodipodi:namedview
     id="namedview6"
     pagecolor="#ffffff"
     bordercolor="#666666"
     borderopacity="1.0"
     inkscape:pageshadow="2"
     inkscape:pageopacity="0.0"
     inkscape:pagecheckerboard="0"
     showgrid="false"
     width="1130px"
     inkscape:zoom="0.88166667"
     inkscape:cx="497.3535"
     inkscape:cy="400.37807"
     inkscape:window-width="2560"
     inkscape:window-height="1369"
     inkscape:window-x="-8"
     inkscape:window-y="-8"
     inkscape:window-maximized="1"
     inkscape:current-layer="svg4" />
  <path
     d="M 72.668047,134.84744 V 30.633157 L 164.26325,82.741796 Z M 276.4104,-2.1585628 C 272.37975,-17.33433 260.50437,-29.285879 245.42717,-33.341909 c -27.32893,-7.371342 -136.91791,-7.371342 -136.91791,-7.371342 0,0 -109.5874883,0 -136.916411,7.371342 -15.077202,4.05603 -26.95259,16.007579 -30.983233,31.1833462 -7.323553,27.5066348 -7.323553,84.8988658 -7.323553,84.8988658 0,0 0,57.389237 7.323553,84.897367 4.030643,15.17726 15.904537,27.12731 30.983233,31.18633 27.3289227,7.36836 136.916411,7.36836 136.916411,7.36836 0,0 109.58898,0 136.91791,-7.36836 15.0772,-4.05902 26.95258,-16.00907 30.98323,-31.18633 7.32355,-27.50813 7.32355,-84.898861 7.32355,-84.898861 0,0 0,-57.390737 -7.32355,-84.8973719"
     fill="#ffffff"
     id="path2"
     style="stroke-width:1.49338" />
</svg>
